<svg xmlns="http://www.w3.org/2000/svg" xmlns:xlink="http://www.w3.org/1999/xlink" width="700" zoomAndPan="magnify" viewBox="0 0 525 149.999998" height="200" preserveAspectRatio="xMidYMid meet" version="1.0"><defs><g/><clipPath id="14db901bdf"><path d="M 27 0 L 101 0 L 101 122 L 27 122 Z M 27 0 " clip-rule="nonzero"/></clipPath><clipPath id="d88d7d5002"><path d="M 42.074219 -9.898438 L 113.933594 1.558594 L 94.023438 126.417969 L 22.164062 114.957031 Z M 42.074219 -9.898438 " clip-rule="nonzero"/></clipPath><clipPath id="f84fc1acb1"><path d="M 42.074219 -9.898438 L 113.933594 1.558594 L 94.023438 126.417969 L 22.164062 114.957031 Z M 42.074219 -9.898438 " clip-rule="nonzero"/></clipPath><clipPath id="028ada421e"><path d="M 42.054688 -9.789062 L 114.347656 1.738281 L 94.457031 126.488281 L 22.164062 114.960938 Z M 42.054688 -9.789062 " clip-rule="nonzero"/></clipPath><clipPath id="83bf6fb7e9"><path d="M 42.054688 -9.789062 L 114.085938 1.695312 L 94.195312 126.4375 L 22.164062 114.953125 Z M 42.054688 -9.789062 " clip-rule="nonzero"/></clipPath><clipPath id="95a617c1bd"><path d="M 42.019531 62.875 L 85.773438 62.875 L 85.773438 105.957031 L 42.019531 105.957031 Z M 42.019531 62.875 " clip-rule="nonzero"/></clipPath><clipPath id="5c7761edfb"><path d="M 63.886719 62.875 C 51.808594 62.875 42.019531 72.519531 42.019531 84.414062 C 42.019531 96.3125 51.808594 105.957031 63.886719 105.957031 C 75.960938 105.957031 85.753906 96.3125 85.753906 84.414062 C 85.753906 72.519531 75.960938 62.875 63.886719 62.875 Z M 63.886719 62.875 " clip-rule="nonzero"/></clipPath><clipPath id="da4e75f5b1"><path d="M 45.382812 65.789062 L 82.675781 65.789062 L 82.675781 103.082031 L 45.382812 103.082031 Z M 45.382812 65.789062 " clip-rule="nonzero"/></clipPath><clipPath id="d4406c8378"><path d="M 52.539062 75.433594 L 73.90625 75.433594 L 73.90625 93.933594 L 52.539062 93.933594 Z M 52.539062 75.433594 " clip-rule="nonzero"/></clipPath><clipPath id="57c6130ba9"><path d="M 48.421875 69.070312 L 79.347656 69.070312 L 79.347656 99.996094 L 48.421875 99.996094 Z M 48.421875 69.070312 " clip-rule="nonzero"/></clipPath><clipPath id="6f9974e96d"><path d="M 50.875 71.457031 L 77 71.457031 L 77 97.835938 L 50.875 97.835938 Z M 50.875 71.457031 " clip-rule="nonzero"/></clipPath><clipPath id="5ca2428abb"><path d="M 52.539062 73.125 L 75.28125 73.125 L 75.28125 95.863281 L 52.539062 95.863281 Z M 52.539062 73.125 " clip-rule="nonzero"/></clipPath><clipPath id="6acc4bb006"><path d="M 50.496094 75.433594 L 77.785156 75.433594 L 77.785156 98.175781 L 50.496094 98.175781 Z M 50.496094 75.433594 " clip-rule="nonzero"/></clipPath><clipPath id="5db77dfe48"><path d="M 27.941406 0 L 108.308594 0 L 108.308594 22.535156 L 27.941406 22.535156 Z M 27.941406 0 " clip-rule="nonzero"/></clipPath><clipPath id="91bcc43767"><path d="M 63.511719 21.113281 L 78.527344 21.113281 L 78.527344 25 L 63.511719 25 Z M 63.511719 21.113281 " clip-rule="nonzero"/></clipPath><clipPath id="467b781dc1"><path d="M 77.074219 24.460938 C 68.5 23.660156 65.5 25 64.429688 24.675781 C 64 24.515625 63.679688 24.140625 63.625 23.820312 C 63.570312 23.390625 63.839844 22.585938 64.214844 22.425781 C 64.589844 22.210938 65.714844 22.585938 65.984375 22.910156 C 66.144531 23.175781 66.089844 23.765625 65.929688 24.085938 C 65.769531 24.410156 65.339844 24.730469 64.964844 24.730469 C 64.589844 24.730469 63.839844 24.300781 63.679688 23.925781 C 63.519531 23.550781 63.679688 22.855469 64.109375 22.480469 C 64.964844 21.675781 68.074219 21.246094 70.214844 21.195312 C 72.625 21.140625 76.964844 21.570312 77.984375 22.480469 C 78.414062 22.855469 78.519531 23.550781 78.414062 23.871094 C 78.253906 24.195312 77.074219 24.460938 77.074219 24.460938 " clip-rule="nonzero"/></clipPath></defs><rect x="-52.5" width="630" fill="#ffffff" y="-15" height="179.999997" fill-opacity="1"/><rect x="-52.5" width="630" fill="#2a2b50" y="-15" height="179.999997" fill-opacity="1"/><g clip-path="url(#14db901bdf)"><g clip-path="url(#d88d7d5002)"><g clip-path="url(#f84fc1acb1)"><g clip-path="url(#028ada421e)"><g clip-path="url(#83bf6fb7e9)"><path fill="#02ab4a" d="M 58.742188 117.167969 C 40.828125 114.3125 28.578125 97.414062 31.433594 79.5 C 32.175781 74.855469 33.851562 70.519531 36.410156 66.625 L 36.449219 66.570312 C 36.917969 65.855469 48.078125 48.949219 57.539062 32.894531 L 57.585938 32.808594 C 57.835938 32.324219 58.113281 31.855469 58.414062 31.402344 L 58.488281 31.273438 C 59.035156 30.335938 59.601562 29.640625 60.164062 29.199219 L 60.328125 29.054688 C 63.769531 25.609375 68.683594 24.011719 73.476562 24.777344 C 78.269531 25.539062 82.441406 28.585938 84.640625 32.929688 L 84.75 33.117188 C 85.148438 33.710938 85.46875 34.550781 85.703125 35.632812 L 85.730469 35.757812 C 85.875 36.28125 85.992188 36.816406 86.078125 37.351562 L 86.097656 37.449219 C 90.09375 55.648438 95.445312 75.1875 95.671875 76.015625 L 95.683594 76.066406 C 96.90625 80.574219 97.152344 85.214844 96.410156 89.859375 C 93.554688 107.773438 76.65625 120.023438 58.742188 117.167969 Z M 57.128906 5.464844 C 69.992188 7.203125 72.210938 16.859375 72.566406 20.992188 C 67.546875 20.375 63.675781 18.539062 61.039062 15.523438 C 58.039062 12.089844 57.296875 7.84375 57.128906 5.464844 Z M 99.128906 75.132812 L 99.125 75.121094 L 99.113281 75.066406 C 98.890625 74.25 93.574219 54.828125 89.59375 36.730469 C 89.492188 36.101562 89.355469 35.472656 89.1875 34.863281 L 89.1875 34.859375 C 88.871094 33.402344 88.398438 32.183594 87.777344 31.222656 C 85.4375 26.664062 81.320312 23.277344 76.480469 21.816406 C 77.1875 18.957031 78.4375 16.152344 79.914062 13.660156 C 83.777344 7.144531 90.046875 3.160156 97.628906 2.617188 C 99.921875 2.453125 99.527344 -1.101562 97.230469 -0.9375 C 87.140625 -0.214844 78.976562 6.453125 74.933594 15.308594 C 72.976562 9.558594 68.003906 2.570312 55.441406 1.707031 L 53.683594 1.585938 L 53.539062 3.34375 C 53.511719 3.679688 52.933594 11.644531 58.320312 17.84375 C 59.941406 19.710938 61.921875 21.199219 64.234375 22.320312 C 61.886719 23.242188 59.710938 24.636719 57.875 26.453125 C 56.984375 27.171875 56.15625 28.1875 55.40625 29.46875 C 55.054688 30.003906 54.726562 30.558594 54.433594 31.125 C 45.023438 47.085938 33.933594 63.890625 33.464844 64.609375 L 33.410156 64.691406 C 33.296875 64.859375 33.191406 65.027344 33.082031 65.199219 L 32.898438 65.480469 L 32.898438 65.484375 C 30.355469 69.59375 28.675781 74.113281 27.90625 78.9375 C 24.742188 98.796875 38.320312 117.527344 58.179688 120.695312 C 78.035156 123.859375 96.769531 110.28125 99.933594 90.421875 C 100.757812 85.269531 100.484375 80.128906 99.128906 75.132812 Z M 66.847656 73.386719 C 70.554688 75.128906 73.199219 78.140625 74.53125 82.003906 C 75.28125 84.1875 78.613281 82.886719 77.867188 80.710938 C 76.238281 75.988281 72.839844 72.253906 68.328125 70.132812 C 66.242188 69.148438 64.765625 72.40625 66.847656 73.386719 Z M 75.191406 86.570312 C 75.160156 87.210938 75.097656 87.835938 75.003906 88.46875 C 74.859375 89.390625 75.523438 90.402344 76.484375 90.511719 C 77.445312 90.625 78.378906 90.023438 78.53125 89.03125 C 78.628906 88.398438 78.691406 87.773438 78.722656 87.136719 C 78.742188 86.640625 78.707031 86.214844 78.40625 85.804688 C 78.144531 85.449219 77.679688 85.136719 77.238281 85.085938 C 76.367188 84.988281 75.234375 85.570312 75.191406 86.570312 Z M 66.632812 67.695312 C 57.570312 66.25 49.019531 72.449219 47.574219 81.511719 C 46.128906 90.570312 52.328125 99.121094 61.390625 100.566406 C 70.449219 102.011719 78.996094 95.8125 80.441406 86.753906 C 81.886719 77.691406 75.691406 69.140625 66.632812 67.695312 Z M 60.828125 104.09375 C 49.820312 102.339844 42.292969 91.953125 44.046875 80.949219 C 45.804688 69.941406 56.1875 62.414062 67.191406 64.167969 C 78.199219 65.925781 85.722656 76.308594 83.96875 87.316406 C 82.214844 98.320312 71.832031 105.847656 60.828125 104.09375 " fill-opacity="1" fill-rule="nonzero"/></g></g></g></g></g><g clip-path="url(#95a617c1bd)"><g clip-path="url(#5c7761edfb)"><path fill="#845333" d="M 42.019531 62.875 L 85.773438 62.875 L 85.773438 105.957031 L 42.019531 105.957031 Z M 42.019531 62.875 " fill-opacity="1" fill-rule="nonzero"/></g></g><g clip-path="url(#da4e75f5b1)"><path fill="#845333" d="M 64 65.789062 C 53.714844 65.789062 45.382812 74.121094 45.382812 84.40625 C 45.382812 94.695312 53.714844 103.027344 64 103.027344 C 74.285156 103.027344 82.617188 94.695312 82.617188 84.40625 C 82.617188 74.121094 74.285156 65.789062 64 65.789062 Z M 64 99.300781 C 55.769531 99.300781 49.105469 92.636719 49.105469 84.40625 C 49.105469 76.179688 55.769531 69.511719 64 69.511719 C 72.230469 69.511719 78.894531 76.179688 78.894531 84.40625 C 78.894531 92.636719 72.230469 99.300781 64 99.300781 Z M 64 99.300781 " fill-opacity="1" fill-rule="nonzero"/></g><g clip-path="url(#d4406c8378)"><path fill="#845333" d="M 52.539062 75.433594 L 73.929688 75.433594 L 73.929688 93.933594 L 52.539062 93.933594 Z M 52.539062 75.433594 " fill-opacity="1" fill-rule="nonzero"/></g><g clip-path="url(#57c6130ba9)"><path fill="#845333" d="M 63.882812 69.070312 C 55.339844 69.070312 48.421875 75.992188 48.421875 84.535156 C 48.421875 93.078125 55.339844 99.996094 63.882812 99.996094 C 72.425781 99.996094 79.347656 93.078125 79.347656 84.535156 C 79.347656 75.992188 72.425781 69.070312 63.882812 69.070312 Z M 63.882812 96.90625 C 57.050781 96.90625 51.511719 91.367188 51.511719 84.535156 C 51.511719 77.699219 57.050781 72.164062 63.882812 72.164062 C 70.71875 72.164062 76.253906 77.699219 76.253906 84.535156 C 76.253906 91.367188 70.71875 96.90625 63.882812 96.90625 Z M 63.882812 96.90625 " fill-opacity="1" fill-rule="nonzero"/></g><g clip-path="url(#6f9974e96d)"><path fill="#845333" d="M 63.917969 71.457031 C 56.710938 71.457031 50.875 77.292969 50.875 84.5 C 50.875 91.703125 56.710938 97.539062 63.917969 97.539062 C 71.121094 97.539062 76.957031 91.703125 76.957031 84.5 C 76.957031 77.292969 71.121094 71.457031 63.917969 71.457031 Z M 63.917969 94.929688 C 58.152344 94.929688 53.484375 90.261719 53.484375 84.5 C 53.484375 78.734375 58.152344 74.066406 63.917969 74.066406 C 69.679688 74.066406 74.347656 78.734375 74.347656 84.5 C 74.347656 90.261719 69.679688 94.929688 63.917969 94.929688 Z M 63.917969 94.929688 " fill-opacity="1" fill-rule="nonzero"/></g><g clip-path="url(#5ca2428abb)"><path fill="#845333" d="M 64.09375 73.125 C 57.710938 73.125 52.539062 78.292969 52.539062 84.679688 C 52.539062 91.0625 57.710938 96.234375 64.09375 96.234375 C 70.480469 96.234375 75.648438 91.0625 75.648438 84.679688 C 75.648438 78.292969 70.480469 73.125 64.09375 73.125 Z M 64.09375 93.921875 C 58.988281 93.921875 54.851562 89.785156 54.851562 84.679688 C 54.851562 79.570312 58.988281 75.433594 64.09375 75.433594 C 69.203125 75.433594 73.339844 79.570312 73.339844 84.679688 C 73.339844 89.785156 69.203125 93.921875 64.09375 93.921875 Z M 64.09375 93.921875 " fill-opacity="1" fill-rule="nonzero"/></g><g clip-path="url(#6acc4bb006)"><path fill="#2a2b50" d="M 75.339844 77.445312 C 72.683594 74.789062 68.339844 74.789062 65.691406 77.445312 L 63.917969 79.21875 L 62.144531 77.445312 C 59.484375 74.789062 55.144531 74.789062 52.496094 77.445312 C 49.917969 80.019531 49.84375 84.1875 52.261719 86.855469 L 58.507812 86.855469 L 59.417969 82.109375 C 59.460938 81.882812 59.648438 81.71875 59.878906 81.707031 C 60.109375 81.691406 60.316406 81.84375 60.375 82.058594 L 62.597656 89.621094 L 63.808594 84.710938 C 63.863281 84.5 64.046875 84.34375 64.261719 84.335938 C 64.480469 84.324219 64.675781 84.457031 64.753906 84.667969 L 65.695312 87.351562 L 67.4375 82.046875 C 67.503906 81.84375 67.703125 81.699219 67.917969 81.707031 C 68.136719 81.714844 68.328125 81.855469 68.378906 82.066406 L 69.707031 86.855469 L 75.570312 86.855469 C 77.996094 84.1875 77.914062 80.019531 75.339844 77.445312 Z M 68.847656 87.480469 L 67.859375 83.90625 L 66.171875 89.046875 C 66.105469 89.25 65.921875 89.386719 65.710938 89.386719 L 65.703125 89.386719 C 65.492188 89.386719 65.308594 89.253906 65.234375 89.050781 L 64.359375 86.558594 L 63.109375 91.632812 C 63.054688 91.851562 62.863281 92.007812 62.640625 92.007812 L 62.625 92.007812 C 62.40625 92.007812 62.210938 91.863281 62.148438 91.65625 L 59.996094 84.289062 L 59.390625 87.441406 C 59.34375 87.671875 59.140625 87.84375 58.910156 87.84375 L 53.226562 87.84375 L 54.261719 88.875 L 63.910156 98.523438 L 74.589844 87.84375 L 69.320312 87.84375 C 69.101562 87.84375 68.910156 87.691406 68.847656 87.480469 Z M 68.847656 87.480469 " fill-opacity="1" fill-rule="nonzero"/></g><g clip-path="url(#5db77dfe48)"><path fill="#2a2b50" d="M 27.941406 -23.4375 L 108.390625 -23.4375 L 108.390625 22.535156 L 27.941406 22.535156 Z M 27.941406 -23.4375 " fill-opacity="1" fill-rule="nonzero"/></g><g clip-path="url(#91bcc43767)"><g clip-path="url(#467b781dc1)"><path fill="#02ab4a" d="M 61.480469 19.050781 L 80.558594 19.050781 L 80.558594 26.925781 L 61.480469 26.925781 Z M 61.480469 19.050781 " fill-opacity="1" fill-rule="nonzero"/></g></g><g fill="#02ab4a" fill-opacity="1"><g transform="translate(131.529756, 105.168883)"><g><path d="M 6.265625 -4.1875 C 3.097656 -7.644531 1.515625 -11.878906 1.515625 -16.890625 C 1.515625 -21.910156 3.097656 -26.160156 6.265625 -29.640625 C 9.441406 -33.117188 13.472656 -34.859375 18.359375 -34.859375 C 22.847656 -34.859375 26.539062 -33.445312 29.4375 -30.625 L 29.4375 -56.78125 L 41.125 -56.78125 L 41.125 0 L 29.578125 0 L 29.578125 -3.828125 L 29.4375 -3.828125 C 26.539062 -0.617188 22.847656 0.984375 18.359375 0.984375 C 13.472656 0.984375 9.441406 -0.738281 6.265625 -4.1875 Z M 16.203125 -22.640625 C 14.679688 -21.148438 13.921875 -19.238281 13.921875 -16.90625 C 13.921875 -14.570312 14.644531 -12.664062 16.09375 -11.1875 C 17.550781 -9.71875 19.46875 -8.984375 21.84375 -8.984375 C 24.132812 -8.984375 26.015625 -9.726562 27.484375 -11.21875 C 28.960938 -12.71875 29.703125 -14.613281 29.703125 -16.90625 C 29.703125 -19.238281 28.941406 -21.148438 27.421875 -22.640625 C 25.910156 -24.140625 24.050781 -24.890625 21.84375 -24.890625 C 19.601562 -24.890625 17.722656 -24.140625 16.203125 -22.640625 Z M 16.203125 -22.640625 "/></g></g></g><g fill="#02ab4a" fill-opacity="1"><g transform="translate(176.613636, 105.168883)"><g><path d="M 38.21875 -15.3125 L 13.671875 -15.3125 C 13.671875 -12.9375 14.4375 -11.175781 15.96875 -10.03125 C 17.507812 -8.882812 19.1875 -8.3125 21 -8.3125 C 22.882812 -8.3125 24.375 -8.566406 25.46875 -9.078125 C 26.570312 -9.585938 27.832031 -10.585938 29.25 -12.078125 L 37.6875 -7.859375 C 34.164062 -1.960938 28.316406 0.984375 20.140625 0.984375 C 15.035156 0.984375 10.65625 -0.757812 7 -4.25 C 3.34375 -7.75 1.515625 -11.960938 1.515625 -16.890625 C 1.515625 -21.828125 3.34375 -26.054688 7 -29.578125 C 10.65625 -33.097656 15.035156 -34.859375 20.140625 -34.859375 C 25.503906 -34.859375 29.867188 -33.304688 33.234375 -30.203125 C 36.609375 -27.097656 38.296875 -22.664062 38.296875 -16.90625 C 38.296875 -16.113281 38.269531 -15.582031 38.21875 -15.3125 Z M 14 -21.78125 L 26.875 -21.78125 C 26.601562 -23.539062 25.90625 -24.894531 24.78125 -25.84375 C 23.664062 -26.789062 22.226562 -27.265625 20.46875 -27.265625 C 18.53125 -27.265625 16.988281 -26.757812 15.84375 -25.75 C 14.695312 -24.738281 14.082031 -23.414062 14 -21.78125 Z M 14 -21.78125 "/></g></g></g><g fill="#02ab4a" fill-opacity="1"><g transform="translate(216.41682, 105.168883)"><g><path d="M 12.546875 -33.859375 L 20.796875 -15.453125 L 29.046875 -33.859375 L 42.90625 -33.859375 L 24.75 0 L 16.828125 0 L -1.328125 -33.859375 Z M 12.546875 -33.859375 "/></g></g></g><g fill="#02ab4a" fill-opacity="1"><g transform="translate(258.002246, 105.168883)"><g><path d="M 38.21875 -15.3125 L 13.671875 -15.3125 C 13.671875 -12.9375 14.4375 -11.175781 15.96875 -10.03125 C 17.507812 -8.882812 19.1875 -8.3125 21 -8.3125 C 22.882812 -8.3125 24.375 -8.566406 25.46875 -9.078125 C 26.570312 -9.585938 27.832031 -10.585938 29.25 -12.078125 L 37.6875 -7.859375 C 34.164062 -1.960938 28.316406 0.984375 20.140625 0.984375 C 15.035156 0.984375 10.65625 -0.757812 7 -4.25 C 3.34375 -7.75 1.515625 -11.960938 1.515625 -16.890625 C 1.515625 -21.828125 3.34375 -26.054688 7 -29.578125 C 10.65625 -33.097656 15.035156 -34.859375 20.140625 -34.859375 C 25.503906 -34.859375 29.867188 -33.304688 33.234375 -30.203125 C 36.609375 -27.097656 38.296875 -22.664062 38.296875 -16.90625 C 38.296875 -16.113281 38.269531 -15.582031 38.21875 -15.3125 Z M 14 -21.78125 L 26.875 -21.78125 C 26.601562 -23.539062 25.90625 -24.894531 24.78125 -25.84375 C 23.664062 -26.789062 22.226562 -27.265625 20.46875 -27.265625 C 18.53125 -27.265625 16.988281 -26.757812 15.84375 -25.75 C 14.695312 -24.738281 14.082031 -23.414062 14 -21.78125 Z M 14 -21.78125 "/></g></g></g><g fill="#02ab4a" fill-opacity="1"><g transform="translate(297.805429, 105.168883)"><g><path d="M 3.96875 0 L 3.96875 -56.78125 L 15.640625 -56.78125 L 15.640625 0 Z M 3.96875 0 "/></g></g></g><g fill="#02ab4a" fill-opacity="1"><g transform="translate(317.409988, 105.168883)"><g><path d="M 7.15625 -4.03125 C 3.394531 -7.375 1.515625 -11.660156 1.515625 -16.890625 C 1.515625 -22.128906 3.472656 -26.429688 7.390625 -29.796875 C 11.304688 -33.171875 16.148438 -34.859375 21.921875 -34.859375 C 27.597656 -34.859375 32.382812 -33.160156 36.28125 -29.765625 C 40.175781 -26.378906 42.125 -22.085938 42.125 -16.890625 C 42.125 -11.703125 40.21875 -7.425781 36.40625 -4.0625 C 32.601562 -0.695312 27.773438 0.984375 21.921875 0.984375 C 15.847656 0.984375 10.925781 -0.6875 7.15625 -4.03125 Z M 16.203125 -22.640625 C 14.679688 -21.148438 13.921875 -19.238281 13.921875 -16.90625 C 13.921875 -14.570312 14.644531 -12.664062 16.09375 -11.1875 C 17.550781 -9.71875 19.46875 -8.984375 21.84375 -8.984375 C 24.132812 -8.984375 26.015625 -9.726562 27.484375 -11.21875 C 28.960938 -12.71875 29.703125 -14.613281 29.703125 -16.90625 C 29.703125 -19.238281 28.941406 -21.148438 27.421875 -22.640625 C 25.910156 -24.140625 24.050781 -24.890625 21.84375 -24.890625 C 19.601562 -24.890625 17.722656 -24.140625 16.203125 -22.640625 Z M 16.203125 -22.640625 "/></g></g></g><g fill="#02ab4a" fill-opacity="1"><g transform="translate(361.041674, 105.168883)"><g><path d="M 38.8125 -29.671875 C 41.988281 -26.210938 43.578125 -21.972656 43.578125 -16.953125 C 43.578125 -11.941406 41.988281 -7.695312 38.8125 -4.21875 C 35.644531 -0.75 31.617188 0.984375 26.734375 0.984375 C 22.242188 0.984375 18.546875 -0.421875 15.640625 -3.234375 L 15.640625 17.171875 L 3.96875 17.171875 L 3.96875 -33.859375 L 15.515625 -33.859375 L 15.515625 -30.03125 L 15.640625 -30.03125 C 18.546875 -33.25 22.242188 -34.859375 26.734375 -34.859375 C 31.617188 -34.859375 35.644531 -33.128906 38.8125 -29.671875 Z M 28.875 -11.21875 C 30.394531 -12.71875 31.15625 -14.632812 31.15625 -16.96875 C 31.15625 -19.300781 30.425781 -21.203125 28.96875 -22.671875 C 27.519531 -24.148438 25.609375 -24.890625 23.234375 -24.890625 C 20.953125 -24.890625 19.070312 -24.140625 17.59375 -22.640625 C 16.113281 -21.148438 15.375 -19.257812 15.375 -16.96875 C 15.375 -14.632812 16.132812 -12.71875 17.65625 -11.21875 C 19.175781 -9.726562 21.035156 -8.984375 23.234375 -8.984375 C 25.484375 -8.984375 27.363281 -9.726562 28.875 -11.21875 Z M 28.875 -11.21875 "/></g></g></g><g fill="#02ab4a" fill-opacity="1"><g transform="translate(406.125554, 105.168883)"><g><path d="M 14.984375 -33.859375 L 14.984375 -17.765625 C 14.984375 -14.410156 15.488281 -12.03125 16.5 -10.625 C 17.507812 -9.21875 19.222656 -8.515625 21.640625 -8.515625 C 24.066406 -8.515625 25.785156 -9.21875 26.796875 -10.625 C 27.816406 -12.03125 28.328125 -14.410156 28.328125 -17.765625 L 28.328125 -33.859375 L 40 -33.859375 L 40 -14.921875 C 40 -9.285156 38.535156 -5.222656 35.609375 -2.734375 C 32.679688 -0.253906 28.023438 0.984375 21.640625 0.984375 C 15.265625 0.984375 10.613281 -0.253906 7.6875 -2.734375 C 4.757812 -5.222656 3.296875 -9.285156 3.296875 -14.921875 L 3.296875 -33.859375 Z M 14.984375 -33.859375 "/></g></g></g><g fill="#02ab4a" fill-opacity="1"><g transform="translate(449.42722, 105.168883)"><g><path d="M 3.96875 0 L 3.96875 -56.78125 L 15.640625 -56.78125 L 15.640625 0 Z M 3.96875 0 "/></g></g></g><g fill="#02ab4a" fill-opacity="1"><g transform="translate(469.031778, 105.168883)"><g><path d="M 18.6875 -34.859375 C 20.625 -34.859375 22.535156 -34.632812 24.421875 -34.1875 C 26.316406 -33.75 27.726562 -33.3125 28.65625 -32.875 L 30.03125 -32.21875 L 26.203125 -24.5625 C 23.566406 -25.96875 21.0625 -26.671875 18.6875 -26.671875 C 17.363281 -26.671875 16.425781 -26.523438 15.875 -26.234375 C 15.320312 -25.953125 15.046875 -25.414062 15.046875 -24.625 C 15.046875 -24.445312 15.066406 -24.269531 15.109375 -24.09375 C 15.160156 -23.914062 15.25 -23.75 15.375 -23.59375 C 15.507812 -23.445312 15.628906 -23.316406 15.734375 -23.203125 C 15.847656 -23.097656 16.035156 -22.976562 16.296875 -22.84375 C 16.566406 -22.707031 16.78125 -22.609375 16.9375 -22.546875 C 17.09375 -22.484375 17.34375 -22.382812 17.6875 -22.25 C 18.039062 -22.113281 18.304688 -22.007812 18.484375 -21.9375 C 18.660156 -21.875 18.957031 -21.773438 19.375 -21.640625 C 19.789062 -21.515625 20.109375 -21.429688 20.328125 -21.390625 C 21.691406 -20.992188 22.878906 -20.550781 23.890625 -20.0625 C 24.910156 -19.582031 25.976562 -18.921875 27.09375 -18.078125 C 28.21875 -17.242188 29.085938 -16.1875 29.703125 -14.90625 C 30.316406 -13.632812 30.625 -12.1875 30.625 -10.5625 C 30.625 -2.863281 25.28125 0.984375 14.59375 0.984375 C 12.164062 0.984375 9.863281 0.613281 7.6875 -0.125 C 5.507812 -0.875 3.9375 -1.625 2.96875 -2.375 L 1.515625 -3.5625 L 6.265625 -11.546875 C 6.617188 -11.242188 7.082031 -10.882812 7.65625 -10.46875 C 8.226562 -10.050781 9.257812 -9.476562 10.75 -8.75 C 12.25 -8.019531 13.550781 -7.65625 14.65625 -7.65625 C 17.070312 -7.65625 18.28125 -8.46875 18.28125 -10.09375 C 18.28125 -10.84375 17.972656 -11.425781 17.359375 -11.84375 C 16.742188 -12.269531 15.695312 -12.742188 14.21875 -13.265625 C 12.75 -13.796875 11.597656 -14.28125 10.765625 -14.71875 C 8.648438 -15.820312 6.972656 -17.066406 5.734375 -18.453125 C 4.503906 -19.835938 3.890625 -21.675781 3.890625 -23.96875 C 3.890625 -27.394531 5.222656 -30.066406 7.890625 -31.984375 C 10.554688 -33.898438 14.15625 -34.859375 18.6875 -34.859375 Z M 18.6875 -34.859375 "/></g></g></g></svg>