<svg xmlns="http://www.w3.org/2000/svg" xmlns:xlink="http://www.w3.org/1999/xlink" width="500" zoomAndPan="magnify" viewBox="0 0 375 374.999991" height="500" preserveAspectRatio="xMidYMid meet" version="1.0"><defs><clipPath id="a4cdb7be96"><path d="M 139.699219 149.359375 L 252.199219 149.359375 L 252.199219 272.722656 L 139.699219 272.722656 Z M 139.699219 149.359375 " clip-rule="nonzero"/></clipPath><clipPath id="a62f9aa16c"><path d="M 90 37.5 L 295 37.5 L 295 322 L 90 322 Z M 90 37.5 " clip-rule="nonzero"/></clipPath><clipPath id="c84f06b178"><path d="M 161 195 L 226 195 L 226 251 L 161 251 Z M 161 195 " clip-rule="nonzero"/></clipPath><clipPath id="e00149333d"><path d="M 161.207031 196.460938 L 224.933594 194.703125 L 226.441406 249.433594 L 162.714844 251.1875 Z M 161.207031 196.460938 " clip-rule="nonzero"/></clipPath><clipPath id="c69e18e02a"><path d="M 161.207031 196.460938 L 224.933594 194.703125 L 226.441406 249.433594 L 162.714844 251.1875 Z M 161.207031 196.460938 " clip-rule="nonzero"/></clipPath></defs><g clip-path="url(#a4cdb7be96)"><path fill="#845333" d="M 139.699219 149.359375 L 252.199219 149.359375 L 252.199219 272.84375 L 139.699219 272.84375 Z M 139.699219 149.359375 " fill-opacity="1" fill-rule="nonzero"/></g><g clip-path="url(#a62f9aa16c)"><path fill="#02ab4a" d="M 191.730469 158.144531 C 205.640625 157.855469 218.542969 165.359375 225.097656 177.625 C 228.15625 183.3125 231.300781 188.96875 234.535156 194.570312 C 247.957031 217.773438 240.046875 247.445312 216.839844 260.867188 C 193.664062 274.316406 163.964844 266.378906 150.542969 243.203125 C 141.824219 228.136719 141.824219 209.605469 150.542969 194.570312 C 153.773438 188.96875 156.921875 183.3125 159.980469 177.625 C 166.300781 165.878906 178.425781 158.433594 191.730469 158.144531 Z M 207.230469 -4.039062 C 206.566406 -4.039062 205.929688 -3.867188 205.351562 -3.519531 C 190.691406 5.140625 183.503906 22.429688 187.660156 38.910156 C 169.535156 40.84375 154.148438 53.109375 148.289062 70.398438 C 136.804688 104.199219 121.996094 136.785156 104.101562 167.667969 C 75.816406 216.535156 92.496094 279.050781 141.335938 307.335938 C 190.171875 335.625 252.6875 318.941406 280.976562 270.105469 C 299.332031 238.441406 299.332031 199.359375 280.976562 167.667969 C 263.078125 136.785156 248.300781 104.199219 236.785156 70.398438 C 230.667969 52.332031 214.183594 39.804688 195.164062 38.734375 C 190.894531 24.96875 196.636719 10.074219 209.046875 2.714844 C 210.78125 1.703125 211.328125 -0.546875 210.289062 -2.25 C 209.652344 -3.347656 208.46875 -4.011719 207.230469 -4.039062 " fill-opacity="1" fill-rule="nonzero"/></g><g clip-path="url(#c84f06b178)"><g clip-path="url(#e00149333d)"><g clip-path="url(#c69e18e02a)"><path fill="#2a2b50" d="M 220.410156 199.613281 C 213.921875 193.472656 203.59375 193.753906 197.46875 200.246094 L 193.367188 204.578125 L 189.03125 200.480469 C 182.542969 194.335938 172.214844 194.621094 166.089844 201.109375 C 160.132812 207.402344 160.230469 217.3125 166.15625 223.503906 L 181.003906 223.097656 L 182.859375 211.742188 C 182.941406 211.207031 183.382812 210.804688 183.929688 210.757812 C 184.480469 210.710938 184.972656 211.054688 185.132812 211.566406 L 190.914062 229.402344 L 193.46875 217.644531 C 193.582031 217.136719 194.007812 216.753906 194.527344 216.722656 C 195.042969 216.675781 195.519531 216.988281 195.710938 217.484375 L 198.132812 223.804688 L 201.921875 211.070312 C 202.070312 210.582031 202.527344 210.230469 203.046875 210.230469 C 203.5625 210.234375 204.027344 210.558594 204.167969 211.058594 L 207.632812 222.363281 L 221.578125 221.976562 C 227.171875 215.46875 226.703125 205.570312 220.410156 199.613281 Z M 205.636719 223.90625 L 203.046875 215.472656 L 199.375 227.796875 C 199.226562 228.285156 198.800781 228.621094 198.296875 228.636719 L 198.28125 228.636719 C 197.78125 228.648438 197.335938 228.355469 197.144531 227.875 L 194.898438 222 L 192.257812 234.152344 C 192.140625 234.675781 191.699219 235.058594 191.167969 235.074219 L 191.132812 235.074219 C 190.617188 235.089844 190.140625 234.761719 189.980469 234.265625 L 184.375 216.890625 L 183.144531 224.425781 C 183.046875 224.980469 182.574219 225.398438 182.023438 225.414062 L 168.515625 225.785156 L 171.039062 228.171875 L 194.613281 250.484375 L 216.925781 226.910156 L 219.316406 224.386719 L 206.777344 224.730469 C 206.261719 224.746094 205.796875 224.402344 205.636719 223.90625 Z M 205.636719 223.90625 " fill-opacity="1" fill-rule="nonzero"/></g></g></g></svg>